# xmcd
#
# Track frame offsets:
#  183
#  29433
#  66558
#  98970
#  143783
#  213865
#  270940
#  295890
#
# Disc length: 4586 seconds
#
# Revision: 6
# Processed by: cddbd v1.5.1PL2 Copyright (c) Steve Scherf et al.
# Submitted via: Collectorz.com_Music_Collector 6.9
#
DISCID=7811e808
DTITLE=Beethoven, Ludwig van - The Revolutionary Beethoven -
DYEAR=1994
DGENRE=Classical
TTITLE0=Symphony no.5 - Allegro Con Brio
TTITLE1=Symphony no.5 - Andante Con Moto
TTITLE2=Symphony no.5 - Allegro
TTITLE3=Symphony no.5 - Allegro
TTITLE4=Symphony no.3 - Allegro Con Brio
TTITLE5=Symphony no.3 - Funeral March: Adagio Assai
TTITLE6=Symphony no.3 - Scherzo: Allegro Vivace
TTITLE7=Symphony no.3 - Finale: Allegro Molto
EXTD=
EXTT0=
EXTT1=
EXTT2=
EXTT3=
EXTT4=
EXTT5=
EXTT6=
EXTT7=
PLAYORDER=
